<svg xmlns="http://www.w3.org/2000/svg" xmlns:xlink="http://www.w3.org/1999/xlink" width="2000" zoomAndPan="magnify" viewBox="0 0 1500 1499.999933" height="2000" preserveAspectRatio="xMidYMid meet" version="1.0"><defs><g/><clipPath id="885a7786d2"><path d="M 0.480469 0 L 764 0 L 764 1219 L 0.480469 1219 Z M 0.480469 0 " clip-rule="nonzero"/></clipPath><clipPath id="5bfde250eb"><rect x="0" width="764" y="0" height="1219"/></clipPath><clipPath id="20f284489b"><path d="M 627 0 L 1344.238281 0 L 1344.238281 1219 L 627 1219 Z M 627 0 " clip-rule="nonzero"/></clipPath><clipPath id="823e2186ea"><rect x="0" width="718" y="0" height="1219"/></clipPath><clipPath id="5ccb42cc4f"><path d="M 207 856 L 1156 856 L 1156 1258.558594 L 207 1258.558594 Z M 207 856 " clip-rule="nonzero"/></clipPath><clipPath id="aff32676f1"><rect x="0" width="949" y="0" height="403"/></clipPath><clipPath id="839c009485"><rect x="0" width="1345" y="0" height="1259"/></clipPath></defs><path fill="#3b1c91" d="M 371.464844 0 L 1128.535156 0 C 1134.613281 0 1140.6875 0.148438 1146.761719 0.449219 C 1152.832031 0.746094 1158.894531 1.191406 1164.945312 1.789062 C 1170.996094 2.382812 1177.027344 3.128906 1183.039062 4.019531 C 1189.054688 4.914062 1195.039062 5.953125 1201.003906 7.136719 C 1206.964844 8.324219 1212.894531 9.65625 1218.792969 11.132812 C 1224.691406 12.609375 1230.546875 14.230469 1236.363281 15.996094 C 1242.183594 17.761719 1247.953125 19.667969 1253.675781 21.714844 C 1259.402344 23.761719 1265.070312 25.949219 1270.6875 28.277344 C 1276.304688 30.601562 1281.859375 33.066406 1287.355469 35.664062 C 1292.851562 38.265625 1298.28125 40.996094 1303.640625 43.863281 C 1309.003906 46.726562 1314.292969 49.722656 1319.503906 52.847656 C 1324.71875 55.972656 1329.855469 59.226562 1334.910156 62.601562 C 1339.964844 65.980469 1344.933594 69.480469 1349.816406 73.101562 C 1354.699219 76.722656 1359.488281 80.460938 1364.191406 84.320312 C 1368.890625 88.175781 1373.492188 92.144531 1377.996094 96.226562 C 1382.5 100.308594 1386.902344 104.5 1391.199219 108.800781 C 1395.5 113.097656 1399.6875 117.5 1403.773438 122.003906 C 1407.855469 126.507812 1411.824219 131.109375 1415.679688 135.808594 C 1419.539062 140.507812 1423.277344 145.300781 1426.898438 150.183594 C 1430.519531 155.066406 1434.019531 160.035156 1437.394531 165.089844 C 1440.773438 170.144531 1444.023438 175.28125 1447.152344 180.492188 C 1450.277344 185.707031 1453.273438 190.996094 1456.136719 196.359375 C 1459.003906 201.71875 1461.734375 207.148438 1464.335938 212.644531 C 1466.933594 218.140625 1469.398438 223.695312 1471.722656 229.3125 C 1474.050781 234.929688 1476.238281 240.597656 1478.285156 246.324219 C 1480.332031 252.046875 1482.238281 257.816406 1484.003906 263.636719 C 1485.769531 269.453125 1487.390625 275.308594 1488.867188 281.207031 C 1490.34375 287.105469 1491.675781 293.035156 1492.863281 298.996094 C 1494.046875 304.957031 1495.085938 310.945312 1495.980469 316.960938 C 1496.871094 322.972656 1497.613281 329.003906 1498.210938 335.054688 C 1498.808594 341.105469 1499.253906 347.167969 1499.550781 353.238281 C 1499.851562 359.3125 1500 365.386719 1500 371.464844 L 1500 1128.535156 C 1500 1134.613281 1499.851562 1140.6875 1499.550781 1146.761719 C 1499.253906 1152.832031 1498.808594 1158.894531 1498.210938 1164.945312 C 1497.613281 1170.996094 1496.871094 1177.027344 1495.980469 1183.039062 C 1495.085938 1189.054688 1494.046875 1195.039062 1492.863281 1201.003906 C 1491.675781 1206.964844 1490.34375 1212.894531 1488.867188 1218.792969 C 1487.390625 1224.691406 1485.769531 1230.546875 1484.003906 1236.363281 C 1482.238281 1242.183594 1480.332031 1247.953125 1478.285156 1253.675781 C 1476.238281 1259.402344 1474.050781 1265.070312 1471.722656 1270.6875 C 1469.398438 1276.304688 1466.933594 1281.859375 1464.335938 1287.355469 C 1461.734375 1292.851562 1459.003906 1298.28125 1456.136719 1303.640625 C 1453.273438 1309.003906 1450.277344 1314.292969 1447.152344 1319.503906 C 1444.027344 1324.71875 1440.773438 1329.855469 1437.398438 1334.910156 C 1434.019531 1339.964844 1430.519531 1344.933594 1426.898438 1349.816406 C 1423.277344 1354.699219 1419.539062 1359.488281 1415.679688 1364.1875 C 1411.824219 1368.890625 1407.855469 1373.492188 1403.773438 1377.996094 C 1399.691406 1382.5 1395.5 1386.902344 1391.199219 1391.199219 C 1386.902344 1395.5 1382.5 1399.6875 1377.996094 1403.773438 C 1373.492188 1407.855469 1368.890625 1411.824219 1364.191406 1415.679688 C 1359.488281 1419.539062 1354.699219 1423.277344 1349.816406 1426.898438 C 1344.933594 1430.519531 1339.964844 1434.019531 1334.910156 1437.394531 C 1329.855469 1440.773438 1324.71875 1444.023438 1319.503906 1447.152344 C 1314.292969 1450.277344 1309.003906 1453.273438 1303.640625 1456.136719 C 1298.28125 1459.003906 1292.851562 1461.734375 1287.355469 1464.335938 C 1281.859375 1466.933594 1276.304688 1469.398438 1270.6875 1471.722656 C 1265.070312 1474.050781 1259.402344 1476.238281 1253.675781 1478.285156 C 1247.953125 1480.332031 1242.183594 1482.238281 1236.363281 1484.003906 C 1230.546875 1485.769531 1224.691406 1487.390625 1218.792969 1488.867188 C 1212.894531 1490.34375 1206.964844 1491.675781 1201.003906 1492.863281 C 1195.039062 1494.046875 1189.054688 1495.085938 1183.039062 1495.980469 C 1177.027344 1496.871094 1170.996094 1497.613281 1164.945312 1498.210938 C 1158.894531 1498.808594 1152.832031 1499.253906 1146.761719 1499.550781 C 1140.6875 1499.851562 1134.613281 1500 1128.535156 1500 L 371.464844 1500 C 365.386719 1500 359.3125 1499.851562 353.238281 1499.550781 C 347.167969 1499.253906 341.105469 1498.808594 335.054688 1498.210938 C 329.003906 1497.613281 322.972656 1496.871094 316.960938 1495.980469 C 310.945312 1495.085938 304.957031 1494.046875 298.996094 1492.863281 C 293.035156 1491.675781 287.105469 1490.34375 281.207031 1488.867188 C 275.308594 1487.390625 269.453125 1485.769531 263.636719 1484.003906 C 257.816406 1482.238281 252.046875 1480.332031 246.324219 1478.285156 C 240.597656 1476.238281 234.929688 1474.050781 229.3125 1471.722656 C 223.695312 1469.398438 218.140625 1466.933594 212.644531 1464.335938 C 207.148438 1461.734375 201.71875 1459.003906 196.359375 1456.136719 C 190.996094 1453.273438 185.707031 1450.277344 180.492188 1447.152344 C 175.28125 1444.023438 170.144531 1440.773438 165.089844 1437.394531 C 160.035156 1434.019531 155.066406 1430.519531 150.183594 1426.898438 C 145.300781 1423.277344 140.507812 1419.539062 135.808594 1415.679688 C 131.109375 1411.824219 126.507812 1407.855469 122.003906 1403.773438 C 117.5 1399.6875 113.097656 1395.5 108.800781 1391.199219 C 104.5 1386.902344 100.308594 1382.5 96.226562 1377.996094 C 92.144531 1373.492188 88.175781 1368.890625 84.320312 1364.1875 C 80.460938 1359.488281 76.722656 1354.699219 73.101562 1349.816406 C 69.480469 1344.933594 65.980469 1339.964844 62.601562 1334.910156 C 59.226562 1329.855469 55.972656 1324.71875 52.847656 1319.503906 C 49.722656 1314.292969 46.726562 1309.003906 43.863281 1303.640625 C 40.996094 1298.28125 38.265625 1292.851562 35.664062 1287.355469 C 33.066406 1281.859375 30.601562 1276.304688 28.277344 1270.6875 C 25.949219 1265.070312 23.761719 1259.402344 21.714844 1253.675781 C 19.667969 1247.953125 17.761719 1242.183594 15.996094 1236.363281 C 14.230469 1230.546875 12.609375 1224.691406 11.132812 1218.792969 C 9.65625 1212.894531 8.324219 1206.964844 7.136719 1201.003906 C 5.953125 1195.039062 4.914062 1189.054688 4.019531 1183.039062 C 3.128906 1177.027344 2.382812 1170.996094 1.789062 1164.945312 C 1.191406 1158.894531 0.746094 1152.832031 0.449219 1146.761719 C 0.148438 1140.6875 0 1134.613281 0 1128.535156 L 0 371.464844 C 0 365.386719 0.148438 359.3125 0.449219 353.238281 C 0.746094 347.167969 1.191406 341.105469 1.789062 335.054688 C 2.382812 329.003906 3.128906 322.972656 4.019531 316.960938 C 4.914062 310.945312 5.953125 304.957031 7.136719 298.996094 C 8.324219 293.035156 9.65625 287.105469 11.132812 281.207031 C 12.609375 275.308594 14.230469 269.453125 15.996094 263.636719 C 17.761719 257.816406 19.667969 252.046875 21.714844 246.324219 C 23.761719 240.597656 25.949219 234.929688 28.277344 229.3125 C 30.601562 223.695312 33.066406 218.140625 35.664062 212.644531 C 38.265625 207.148438 40.996094 201.71875 43.863281 196.359375 C 46.726562 190.996094 49.722656 185.707031 52.847656 180.492188 C 55.972656 175.28125 59.226562 170.144531 62.601562 165.089844 C 65.980469 160.035156 69.480469 155.066406 73.101562 150.183594 C 76.722656 145.300781 80.460938 140.507812 84.320312 135.808594 C 88.175781 131.109375 92.144531 126.507812 96.226562 122.003906 C 100.308594 117.5 104.5 113.097656 108.800781 108.800781 C 113.097656 104.5 117.5 100.308594 122.003906 96.226562 C 126.507812 92.144531 131.109375 88.175781 135.808594 84.320312 C 140.507812 80.460938 145.300781 76.722656 150.183594 73.101562 C 155.066406 69.480469 160.035156 65.980469 165.089844 62.601562 C 170.144531 59.226562 175.28125 55.972656 180.492188 52.847656 C 185.707031 49.722656 190.996094 46.726562 196.359375 43.863281 C 201.71875 40.996094 207.148438 38.265625 212.644531 35.664062 C 218.140625 33.066406 223.695312 30.601562 229.3125 28.277344 C 234.929688 25.949219 240.597656 23.761719 246.324219 21.714844 C 252.046875 19.667969 257.816406 17.761719 263.636719 15.996094 C 269.453125 14.230469 275.308594 12.609375 281.207031 11.132812 C 287.105469 9.65625 293.035156 8.324219 298.996094 7.136719 C 304.957031 5.953125 310.945312 4.914062 316.960938 4.019531 C 322.972656 3.128906 329.003906 2.382812 335.054688 1.789062 C 341.105469 1.191406 347.167969 0.746094 353.238281 0.449219 C 359.3125 0.148438 365.386719 0 371.464844 0 Z M 371.464844 0 " fill-opacity="1" fill-rule="nonzero"/><g transform="matrix(1, 0, 0, 1, 66, 0.000000000000112861)"><g clip-path="url(#839c009485)"><g clip-path="url(#885a7786d2)"><g transform="matrix(1, 0, 0, 1, 0, 0.000000000000112861)"><g clip-path="url(#5bfde250eb)"><g fill="#ffffff" fill-opacity="1"><g transform="translate(1.674621, 952.867883)"><g><path d="M 357.875 14.578125 C 292.476562 14.578125 232.390625 -1.546875 177.609375 -33.796875 C 122.828125 -66.046875 88.804688 -115.304688 75.546875 -181.578125 C 69.359375 -216.929688 66.265625 -246.976562 66.265625 -271.71875 C 66.265625 -324.726562 76.867188 -371.554688 98.078125 -412.203125 C 119.285156 -452.859375 151.984375 -484.226562 196.171875 -506.3125 C 199.703125 -508.082031 208.753906 -512.054688 223.328125 -518.234375 C 237.910156 -524.421875 256.6875 -530.160156 279.65625 -535.453125 C 302.632812 -540.753906 326.492188 -543.40625 351.234375 -543.40625 C 369.796875 -543.40625 386.585938 -541.640625 401.609375 -538.109375 C 400.722656 -546.066406 400.28125 -557.554688 400.28125 -572.578125 C 400.28125 -623.828125 411.765625 -664.472656 434.734375 -694.515625 C 457.710938 -724.554688 490.847656 -739.578125 534.140625 -739.578125 C 558.878906 -739.578125 580.742188 -734.71875 599.734375 -725 C 618.734375 -715.28125 634.421875 -697.164062 646.796875 -670.65625 C 657.398438 -649.445312 665.796875 -616.09375 671.984375 -570.59375 C 678.171875 -525.09375 681.265625 -474.507812 681.265625 -418.84375 C 681.265625 -333.125 674.191406 -257.128906 660.046875 -190.859375 C 645.023438 -115.753906 614.101562 -62.738281 567.28125 -31.8125 C 520.457031 -0.882812 450.65625 14.578125 357.875 14.578125 Z M 361.84375 -160.375 C 389.238281 -160.375 412.65625 -170.09375 432.09375 -189.53125 C 451.53125 -208.976562 461.25 -232.394531 461.25 -259.78125 C 461.25 -287.175781 451.53125 -310.59375 432.09375 -330.03125 C 412.65625 -349.46875 389.238281 -359.1875 361.84375 -359.1875 C 334.445312 -359.1875 311.03125 -349.46875 291.59375 -330.03125 C 272.15625 -310.59375 262.4375 -287.175781 262.4375 -259.78125 C 262.4375 -232.394531 272.15625 -208.976562 291.59375 -189.53125 C 311.03125 -170.09375 334.445312 -160.375 361.84375 -160.375 Z M 361.84375 -160.375 "/></g></g></g></g></g></g><g clip-path="url(#20f284489b)"><g transform="matrix(1, 0, 0, 1, 627, 0.000000000000112861)"><g clip-path="url(#823e2186ea)"><g fill="#ffffff" fill-opacity="1"><g transform="translate(1.035411, 952.867883)"><g><path d="M 359.1875 5.296875 C 270.832031 5.296875 199.921875 -15.6875 146.453125 -57.65625 C 92.992188 -99.625 66.265625 -167.441406 66.265625 -261.109375 C 66.265625 -353.890625 89.019531 -429.878906 134.53125 -489.078125 C 180.039062 -548.273438 254.925781 -577.875 359.1875 -577.875 C 460.8125 -577.875 534.59375 -545.84375 580.53125 -481.78125 C 626.476562 -417.726562 649.453125 -339.753906 649.453125 -247.859375 C 649.453125 -158.609375 622.941406 -94.101562 569.921875 -54.34375 C 516.910156 -14.582031 446.664062 5.296875 359.1875 5.296875 Z M 356.546875 -170.984375 C 384.816406 -170.984375 408.890625 -181.144531 428.765625 -201.46875 C 448.648438 -221.789062 458.59375 -246.085938 458.59375 -274.359375 C 458.59375 -302.640625 448.648438 -326.71875 428.765625 -346.59375 C 408.890625 -366.476562 384.816406 -376.421875 356.546875 -376.421875 C 328.265625 -376.421875 303.960938 -366.476562 283.640625 -346.59375 C 263.316406 -326.71875 253.15625 -302.640625 253.15625 -274.359375 C 253.15625 -246.085938 263.316406 -221.789062 283.640625 -201.46875 C 303.960938 -181.144531 328.265625 -170.984375 356.546875 -170.984375 Z M 356.546875 -170.984375 "/></g></g></g></g></g></g><g clip-path="url(#5ccb42cc4f)"><g transform="matrix(1, 0, 0, 1, 207, 856)"><g clip-path="url(#aff32676f1)"><g fill="#ffffff" fill-opacity="1"><g transform="translate(1.152012, 334.864703)"><g><path d="M 130.234375 1.34375 C 104.347656 1.34375 85.039062 -4.289062 72.3125 -15.5625 C 59.59375 -26.84375 53.234375 -43.195312 53.234375 -64.625 C 53.234375 -71.09375 53.679688 -77.117188 54.578125 -82.703125 C 41.847656 -82.703125 32.582031 -85.265625 26.78125 -90.390625 C 20.976562 -95.523438 18.078125 -103.785156 18.078125 -115.171875 C 18.078125 -127.671875 21.035156 -136.097656 26.953125 -140.453125 C 32.867188 -144.804688 42.859375 -146.984375 56.921875 -146.984375 C 56.691406 -148.316406 56.578125 -150.101562 56.578125 -152.34375 C 56.578125 -162.164062 59.476562 -170.085938 65.28125 -176.109375 C 71.09375 -182.140625 79.128906 -185.15625 89.390625 -185.15625 C 101.003906 -185.15625 109.546875 -181.914062 115.015625 -175.4375 C 120.484375 -168.96875 123.21875 -159.035156 123.21875 -145.640625 C 138.613281 -146.535156 149.660156 -144.359375 156.359375 -139.109375 C 163.054688 -133.867188 166.40625 -124.882812 166.40625 -112.15625 C 166.40625 -99.882812 164.226562 -91.40625 159.875 -86.71875 C 155.519531 -82.03125 148.207031 -79.6875 137.9375 -79.6875 C 136.15625 -79.6875 132.585938 -79.910156 127.234375 -80.359375 C 125.671875 -77.234375 124.890625 -73.992188 124.890625 -70.640625 C 124.890625 -65.953125 126.671875 -62.210938 130.234375 -59.421875 C 133.804688 -56.640625 138.71875 -54.910156 144.96875 -54.234375 C 150.101562 -53.566406 153.898438 -50.441406 156.359375 -44.859375 C 158.816406 -39.285156 160.046875 -33.707031 160.046875 -28.125 C 160.046875 -20.3125 158.3125 -13.554688 154.84375 -7.859375 C 151.382812 -2.171875 146.644531 0.78125 140.625 1 C 138.164062 1.226562 134.703125 1.34375 130.234375 1.34375 Z M 130.234375 1.34375 "/></g></g></g><g fill="#ffffff" fill-opacity="1"><g transform="translate(185.635057, 334.864703)"><g><path d="M 112.5 5.6875 C 104.90625 5.6875 96.085938 5.128906 86.046875 4.015625 C 75.328125 2.679688 65.5625 -0.160156 56.75 -4.515625 C 47.9375 -8.867188 40.066406 -15.734375 33.140625 -25.109375 C 27.785156 -32.472656 23.710938 -40.84375 20.921875 -50.21875 C 18.128906 -59.59375 16.734375 -69.082031 16.734375 -78.6875 C 16.734375 -88.28125 18.078125 -97.09375 20.765625 -105.125 C 32.816406 -140.84375 58.257812 -158.703125 97.09375 -158.703125 C 122.988281 -158.703125 144.082031 -148.992188 160.375 -129.578125 C 165.726562 -123.328125 169.742188 -115.90625 172.421875 -107.3125 C 175.109375 -98.71875 176.453125 -90.289062 176.453125 -82.03125 C 176.453125 -75.550781 175.613281 -69.742188 173.9375 -64.609375 C 172.257812 -59.484375 169.859375 -55.691406 166.734375 -53.234375 C 161.378906 -48.992188 152.675781 -46.875 140.625 -46.875 C 148.207031 -45.976562 153.894531 -43.800781 157.6875 -40.34375 C 161.488281 -36.882812 163.390625 -31.804688 163.390625 -25.109375 C 163.390625 -22.878906 163.273438 -21.207031 163.046875 -20.09375 C 161.929688 -10.9375 156.796875 -4.347656 147.640625 -0.328125 C 138.492188 3.679688 126.78125 5.6875 112.5 5.6875 Z M 100.78125 -72.984375 C 109.257812 -72.984375 116.398438 -75.046875 122.203125 -79.171875 C 128.003906 -83.304688 130.90625 -88.390625 130.90625 -94.421875 C 130.90625 -100.222656 128.003906 -105.1875 122.203125 -109.3125 C 116.398438 -113.445312 109.257812 -115.515625 100.78125 -115.515625 C 92.519531 -115.515625 85.429688 -113.445312 79.515625 -109.3125 C 73.597656 -105.1875 70.640625 -100.222656 70.640625 -94.421875 C 70.640625 -88.390625 73.539062 -83.304688 79.34375 -79.171875 C 85.15625 -75.046875 92.300781 -72.984375 100.78125 -72.984375 Z M 100.78125 -72.984375 "/></g></g></g><g fill="#ffffff" fill-opacity="1"><g transform="translate(378.823237, 334.864703)"><g><path d="M 92.40625 5.015625 C 77.226562 5.015625 63.722656 2.453125 51.890625 -2.671875 C 44.972656 -5.578125 38.664062 -9.648438 32.96875 -14.890625 C 27.28125 -20.140625 23.546875 -26.335938 21.765625 -33.484375 C 20.203125 -40.179688 19.421875 -45.757812 19.421875 -50.21875 C 19.421875 -60.257812 21.539062 -69.519531 25.78125 -78 C 30.019531 -86.488281 35.820312 -92.519531 43.1875 -96.09375 C 35.15625 -95.863281 28.738281 -98.148438 23.9375 -102.953125 C 19.132812 -107.753906 16.734375 -113.613281 16.734375 -120.53125 C 16.734375 -124.550781 17.625 -128.515625 19.40625 -132.421875 C 21.195312 -136.328125 23.769531 -139.726562 27.125 -142.625 C 33.820312 -148.425781 42.804688 -152.441406 54.078125 -154.671875 C 65.347656 -156.910156 77.34375 -157.695312 90.0625 -157.03125 C 113.28125 -156.351562 132.585938 -148.648438 147.984375 -133.921875 C 156.242188 -125.890625 162.046875 -116.679688 165.390625 -106.296875 C 168.742188 -95.921875 170.421875 -83.925781 170.421875 -70.3125 C 170.421875 -54.90625 167.960938 -42.347656 163.046875 -32.640625 C 158.140625 -22.929688 150.21875 -14.394531 139.28125 -7.03125 C 133.925781 -3.238281 127.0625 -0.285156 118.6875 1.828125 C 110.320312 3.953125 101.5625 5.015625 92.40625 5.015625 Z M 93.75 -35.15625 C 100.664062 -35.15625 106.523438 -37.550781 111.328125 -42.34375 C 116.128906 -47.144531 118.53125 -53.007812 118.53125 -59.9375 C 118.53125 -66.625 116.128906 -72.367188 111.328125 -77.171875 C 106.523438 -81.972656 100.664062 -84.375 93.75 -84.375 C 86.832031 -84.375 80.972656 -81.972656 76.171875 -77.171875 C 71.367188 -72.367188 68.96875 -66.625 68.96875 -59.9375 C 68.96875 -53.007812 71.367188 -47.144531 76.171875 -42.34375 C 80.972656 -37.550781 86.832031 -35.15625 93.75 -35.15625 Z M 93.75 -35.15625 "/></g></g></g><g fill="#ffffff" fill-opacity="1"><g transform="translate(565.984781, 334.864703)"><g><path d="M 50.5625 -2.015625 C 44.976562 -2.015625 39.726562 -3.519531 34.8125 -6.53125 C 29.90625 -9.539062 26.5625 -14.171875 24.78125 -20.421875 C 23.21875 -26.003906 22.046875 -34.375 21.265625 -45.53125 C 20.484375 -56.695312 20.09375 -68.304688 20.09375 -80.359375 C 20.09375 -91.742188 20.425781 -101.453125 21.09375 -109.484375 C 22.207031 -119.078125 25.164062 -126.273438 29.96875 -131.078125 C 34.769531 -135.878906 41.851562 -138.28125 51.21875 -138.28125 C 56.800781 -138.28125 61.65625 -137.050781 65.78125 -134.59375 C 69.914062 -132.132812 72.988281 -128.5625 75 -123.875 C 78.125 -127.445312 82.03125 -130.179688 86.71875 -132.078125 C 91.40625 -133.972656 96.316406 -134.921875 101.453125 -134.921875 C 106.140625 -134.921875 110.488281 -134.140625 114.5 -132.578125 C 118.519531 -131.015625 121.757812 -128.894531 124.21875 -126.21875 C 127.113281 -129.125 130.625 -131.359375 134.75 -132.921875 C 138.882812 -134.484375 143.296875 -135.265625 147.984375 -135.265625 C 155.347656 -135.265625 162.039062 -133.363281 168.0625 -129.5625 C 174.09375 -125.769531 178.453125 -119.96875 181.140625 -112.15625 C 186.046875 -98.320312 188.5 -81.472656 188.5 -61.609375 C 188.5 -47.316406 187.160156 -34.59375 184.484375 -23.4375 C 182.921875 -17.1875 179.628906 -12.160156 174.609375 -8.359375 C 169.585938 -4.566406 163.835938 -2.671875 157.359375 -2.671875 C 152.671875 -2.671875 149.097656 -3.34375 146.640625 -4.6875 C 144.191406 -6.03125 141.738281 -7.925781 139.28125 -10.375 C 137.269531 -12.164062 135.539062 -13.503906 134.09375 -14.390625 C 132.644531 -15.285156 130.691406 -15.734375 128.234375 -15.734375 C 126.671875 -15.734375 125.273438 -15.285156 124.046875 -14.390625 C 122.816406 -13.503906 121.535156 -12.164062 120.203125 -10.375 C 117.960938 -7.695312 115.78125 -5.632812 113.65625 -4.1875 C 111.539062 -2.738281 108.253906 -2.015625 103.796875 -2.015625 C 99.992188 -2.015625 97.144531 -2.625 95.25 -3.84375 C 93.351562 -5.070312 91.398438 -6.914062 89.390625 -9.375 C 87.609375 -11.382812 85.878906 -12.945312 84.203125 -14.0625 C 82.523438 -15.175781 80.238281 -15.734375 77.34375 -15.734375 C 75.332031 -15.734375 73.710938 -15.285156 72.484375 -14.390625 C 71.253906 -13.503906 69.859375 -12.164062 68.296875 -10.375 C 66.066406 -7.695312 63.722656 -5.632812 61.265625 -4.1875 C 58.816406 -2.738281 55.25 -2.015625 50.5625 -2.015625 Z M 50.5625 -2.015625 "/></g></g></g><g fill="#ffffff" fill-opacity="1"><g transform="translate(774.574456, 334.864703)"><g><path d="M 86.375 5.359375 C 68.96875 5.359375 53.679688 3.015625 40.515625 -1.671875 C 27.117188 -6.585938 20.421875 -14.625 20.421875 -25.78125 C 20.421875 -28.007812 20.753906 -30.460938 21.421875 -33.140625 C 22.984375 -38.273438 26.164062 -42.347656 30.96875 -45.359375 C 35.769531 -48.378906 42.078125 -50.222656 49.890625 -50.890625 C 51.898438 -51.109375 54.296875 -51.21875 57.078125 -51.21875 C 59.867188 -51.21875 61.820312 -51.441406 62.9375 -51.890625 C 64.0625 -52.335938 64.625 -53.34375 64.625 -54.90625 C 64.625 -56.695312 63.785156 -57.925781 62.109375 -58.59375 C 60.429688 -59.257812 57.363281 -60.039062 52.90625 -60.9375 C 46.875 -62.269531 41.847656 -63.71875 37.828125 -65.28125 C 33.816406 -66.84375 30.25 -69.410156 27.125 -72.984375 C 20.195312 -80.796875 16.734375 -89.613281 16.734375 -99.4375 C 16.734375 -104.789062 17.847656 -109.976562 20.078125 -115 C 22.316406 -120.03125 25.445312 -124.441406 29.46875 -128.234375 C 41.070312 -139.835938 59.820312 -145.640625 85.71875 -145.640625 C 112.269531 -145.421875 132.132812 -139.953125 145.3125 -129.234375 C 152.226562 -123.210938 155.6875 -116.296875 155.6875 -108.484375 C 155.6875 -106.242188 155.578125 -104.679688 155.359375 -103.796875 C 152.898438 -93.523438 145.195312 -88.390625 132.25 -88.390625 C 130.46875 -88.390625 128.738281 -88.5 127.0625 -88.71875 C 125.382812 -88.945312 123.765625 -89.0625 122.203125 -89.0625 C 120.191406 -89.0625 118.6875 -88.78125 117.6875 -88.21875 C 116.6875 -87.664062 116.1875 -86.492188 116.1875 -84.703125 C 116.1875 -82.691406 116.96875 -81.128906 118.53125 -80.015625 C 120.09375 -78.898438 122.65625 -77.675781 126.21875 -76.34375 C 130.238281 -74.550781 133.8125 -72.816406 136.9375 -71.140625 C 140.0625 -69.472656 143.1875 -67.1875 146.3125 -64.28125 C 153.457031 -57.363281 157.03125 -48.546875 157.03125 -37.828125 C 157.03125 -28.453125 154.347656 -20.421875 148.984375 -13.734375 C 144.296875 -7.703125 138.492188 -3.347656 131.578125 -0.671875 C 124.660156 2.003906 115.625 3.789062 104.46875 4.6875 C 100.445312 5.132812 94.414062 5.359375 86.375 5.359375 Z M 86.375 5.359375 "/></g></g></g></g></g></g></g></g></svg>